#!OML:ASF I:\Actors\actors\Patient Classification 2\Patient 1\Session 1\actor1.ASF
:FULLY-SPECIFIED
:DEGREES
466
root -1.00798 17.9925 6.34888 -3.14589 -4.66111 -4.7597
lowerback 3.09626 0.116337 2.52024
upperback -1.91536 0.372989 2.92283
thorax -3.71643 0.160484 1.57785
lowerneck -0.268179 -12.057 -12.6481
upperneck 30.9547 -16.4801 0.779921
head 11.3016 -8.96861 0.631837
rclavicle 1.635e-014 5.56597e-015
rhumerus 31.06 8.12883 -48.4556
rradius 116.296
rwrist -67.8957
rhand 9.26051 -24.7877
rfingers 7.12502
rthumb 34.4246 -51.4761
lclavicle 1.635e-014 5.56597e-015
lhumerus 39.298 14.4018 32.2241
lradius 105.435
lwrist 79.797
lhand 14.8211 -9.00511
lfingers 7.12502
lthumb 39.6832 16.3157
rfemur 0 0 0
rtibia 0
rfoot 0 0
rtoes 0
lfemur 25.1536 -6.09171 -13.0491
ltibia -20.1914
lfoot -4.97072 21.4436
ltoes -9.83813
467
root -1.00733 17.9934 6.34173 -3.19863 -4.39818 -4.72624
lowerback 3.18783 0.182911 2.37188
upperback -1.92044 0.462076 3.00045
thorax -3.77615 0.209446 1.73571
lowerneck -0.0646147 -12.1709 -13.1513
upperneck 31.0877 -16.621 0.774339
head 11.3858 -9.08874 0.686771
rclavicle -9.83984e-015 1.19271e-014
rhumerus 30.2594 7.49097 -50.2532
rradius 116.945
rwrist -66.6723
rhand 8.6078 -23.202
rfingers 7.12502
rthumb 33.8047 -50.0289
lclavicle -9.83984e-015 1.19271e-014
lhumerus 39.5864 13.6631 31.7697
lradius 105.133
lwrist 79.8397
lhand 15.7427 -9.22101
lfingers 7.12502
lthumb 40.5503 15.8366
rfemur 0 0 0
rtibia 0
rfoot 0 0
rtoes 0
lfemur 25.1172 -6.18023 -13.0657
ltibia -20.2113
lfoot -4.85163 21.2867
ltoes -10.0338
468
root -1.00666 17.9936 6.33484 -3.27218 -4.06819 -4.69781
lowerback 3.2725 0.271217 2.2475
upperback -1.89102 0.577762 3.02745
thorax -3.79651 0.270653 1.82567
lowerneck -0.0594387 -12.2609 -13.5739
upperneck 31.335 -16.6903 0.69592
head 11.5324 -9.17164 0.6951
rclavicle 1.799e-014 1.78906e-014
rhumerus 29.1579 6.47704 -52.2636
rradius 117.813
rwrist -65.7664
rhand 8.68692 -21.2276
rfingers 7.12502
rthumb 33.8799 -48.0379
lclavicle 1.799e-014 1.78906e-014
lhumerus 40.1973 12.9814 31.5285
lradius 104.972
lwrist 79.9183
lhand 16.4481 -9.51492
lfingers 7.12502
lthumb 41.213 15.3334
rfemur 0 0 0
rtibia 0
rfoot 0 0
rtoes 0
lfemur 25.0744 -6.19005 -13.0469
ltibia -20.2171
lfoot -4.63208 20.9781
ltoes -10.4481
469
root -1.00226 17.9989 6.32447 -3.26956 -3.92666 -4.68964
lowerback 3.34393 0.430745 2.22426
upperback -1.86405 0.79143 3.01373
thorax -3.81241 0.377439 1.81013
lowerneck -0.396252 -12.3286 -13.9034
upperneck 31.8358 -16.6588 0.48624
head 11.8165 -9.20802 0.62153
rclavicle 9.14409e-015 -8.74653e-015
rhumerus 27.9521 5.07191 -54.4822
rradius 118.898
rwrist -65.8037
rhand 8.87079 -19.7895
rfingers 7.12502
rthumb 34.0546 -46.5612
lclavicle 9.14409e-015 -8.74653e-015
lhumerus 41.0274 12.4087 31.4492
lradius 104.912
lwrist 80.0561
lhand 16.9366 -9.79711
lfingers 7.12502
lthumb 41.6713 14.9021
rfemur 0 0 0
rtibia 0
rfoot 0 0
rtoes 0
lfemur 24.9915 -6.27088 -13.0745
ltibia -20.2474
lfoot -4.49798 20.9653
ltoes -10.6515
470
root -0.984157 18.0143 6.30622 -3.07167 -4.15759 -4.6831
lowerback 3.45955 0.701843 2.43918
upperback -1.93631 1.16984 2.9435
thorax -3.95324 0.558234 1.59075
lowerneck -0.0116566 -12.251 -14.3964
upperneck 31.579 -16.5961 0.732938
head 11.7152 -9.20988 0.822051
rclavicle 5.36719e-015 4.45278e-014
rhumerus 26.7592 3.36351 -56.8798
rradius 120.048
rwrist -66.2274
rhand 9.32102 -18.8369
rfingers 7.12502
rthumb 34.4821 -45.5123
lclavicle 5.36719e-015 4.45278e-014
lhumerus 41.9099 11.8965 31.4612
lradius 104.952
lwrist 80.2215
lhand 17.4802 -10.4393
lfingers 7.12502
lthumb 42.1809 14.0899
rfemur 0 0 0
rtibia 0
rfoot 0 0
rtoes 0
lfemur 24.7619 -6.63101 -13.2889
ltibia -20.2715
lfoot -4.62454 21.628
ltoes -10.123
471
root -0.986769 18.0156 6.29646 -3.11819 -3.86378 -4.71381
lowerback 3.55843 0.792739 2.3444
upperback -1.88614 1.2887 2.93485
thorax -3.96017 0.619893 1.62563
lowerneck 0.0603472 -12.2005 -14.7419
upperneck 31.4982 -16.519 0.864958
head 11.715 -9.19597 0.933529
rclavicle 7.37988e-015 4.37326e-015
rhumerus 25.7221 1.38708 -59.2777
rradius 121.108
rwrist -66.2766
rhand 10.0737 -17.6907
rfingers 7.12502
rthumb 35.1963 -44.2007
lclavicle 7.37988e-015 4.37326e-015
lhumerus 42.8245 11.5018 31.5805
lradius 105.115
lwrist 80.4281
lhand 18.4075 -11.358
lfingers 7.12502
lthumb 43.0488 12.8706
rfemur 0 0 0
rtibia 0
rfoot 0 0
rtoes 0
lfemur 24.7047 -6.7755 -13.2333
ltibia -20.2784
lfoot -4.47028 21.5006
ltoes -10.3459
472
root -0.989012 18.015 6.28776 -3.19752 -3.58012 -4.70665
lowerback 3.67063 0.885242 2.25558
upperback -1.79485 1.40786 2.9012
thorax -3.93147 0.681378 1.63095
lowerneck -0.13162 -12.222 -14.8882
upperneck 31.5292 -16.4995 0.88419
head 11.7819 -9.19335 0.946349
rclavicle -1.52816e-014 1.59028e-015
rhumerus 24.8936 -0.625387 -61.3601
rradius 122.028
rwrist -66.0092
rhand 10.2623 -16.4263
rfingers 7.12502
rthumb 35.3751 -42.8939
lclavicle -1.52816e-014 1.59028e-015
lhumerus 43.7045 11.2635 31.752
lradius 105.395
lwrist 80.6315
lhand 19.2164 -12.1567
lfingers 7.12502
lthumb 43.8044 11.7988
rfemur 0 0 0
rtibia 0
rfoot 0 0
rtoes 0
lfemur 24.6713 -6.86627 -13.2164
ltibia -20.2679
lfoot -4.32091 21.289
ltoes -10.852
473
root -0.990622 18.015 6.28105 -3.24504 -3.30807 -4.68688
lowerback 3.76028 0.966773 2.18906
upperback -1.72848 1.51405 2.88542
thorax -3.91589 0.735924 1.64328
lowerneck -0.343651 -12.2816 -14.9552
upperneck 31.5401 -16.5438 0.908864
head 11.8415 -9.20983 0.940709
rclavicle 3.23025e-016 -1.43125e-014
rhumerus 24.2968 -2.14916 -62.8558
rradius 122.681
rwrist -66.078
rhand 9.46886 -15.7601
rfingers 7.12502
rthumb 34.6224 -42.4035
lclavicle 3.23025e-016 -1.43125e-014
lhumerus 44.4154 11.0983 31.9804
lradius 105.744
lwrist 80.6951
lhand 19.5872 -12.7037
lfingers 7.12502
lthumb 44.1504 11.1229
rfemur 0 0 0
rtibia 0
rfoot 0 0
rtoes 0
lfemur 24.6252 -6.98746 -13.2225
ltibia -20.2793
lfoot -4.24739 21.1348
ltoes -10.9333
